# xmcd
#
# Track frame offsets: 
#        150
#        13747
#        46743
#        63993
#        88974
#        112765
#        137203
#        153948
#        167355
#        203134
#
# Disc length: 2952 seconds
#
# Revision: 0
# Processed by: cddbd v1.5.2PL0 Copyright (c) Steve Scherf et al.
# Submitted via: ExactAudioCopy v1.0b3
#
DISCID=780b860a
DTITLE=Miss Blues - Blues With an Attitude
DYEAR=2012
DGENRE=Blues
TTITLE0=Evil Hearted Me
TTITLE1=Faking It
TTITLE2=Take Your Finger Off of It
TTITLE3=Margree's Blues
TTITLE4=Bottle Up and Go
TTITLE5=Sneaking Around With You
TTITLE6=All Those Lies
TTITLE7=Corinna Corinna
TTITLE8=Stormy Monday Blues
TTITLE9=Good Morning Blues
EXTD=
EXTT0=
EXTT1=
EXTT2=
EXTT3=
EXTT4=
EXTT5=
EXTT6=
EXTT7=
EXTT8=
EXTT9=
PLAYORDER=
